<svg xmlns="http://www.w3.org/2000/svg" width="900" height="314" viewBox="0 0 900 314" font-family="-apple-system,Segoe UI,Helvetica,Arial,sans-serif" font-size="12">
<rect width="900" height="314" fill="#ffffff"/>
<text x="56" y="22" font-size="15" font-weight="600" fill="#1f2328">Findings per repository</text>
<line x1="56" y1="244.0" x2="884" y2="244.0" stroke="#d0d7de" stroke-width="1"/>
<text x="50" y="248.0" text-anchor="end" fill="#1f2328">0</text>
<line x1="56" y1="193.0" x2="884" y2="193.0" stroke="#d0d7de" stroke-width="1"/>
<text x="50" y="197.0" text-anchor="end" fill="#1f2328">12</text>
<line x1="56" y1="142.0" x2="884" y2="142.0" stroke="#d0d7de" stroke-width="1"/>
<text x="50" y="146.0" text-anchor="end" fill="#1f2328">25</text>
<line x1="56" y1="91.0" x2="884" y2="91.0" stroke="#d0d7de" stroke-width="1"/>
<text x="50" y="95.0" text-anchor="end" fill="#1f2328">38</text>
<line x1="56" y1="40.0" x2="884" y2="40.0" stroke="#d0d7de" stroke-width="1"/>
<text x="50" y="44.0" text-anchor="end" fill="#1f2328">50</text>
<text x="56.0" y="260" text-anchor="middle" fill="#1f2328" font-size="10">0.2.0</text>
<text x="133.0" y="260" text-anchor="middle" fill="#1f2328" font-size="10">0.6.0</text>
<text x="190.8" y="260" text-anchor="middle" fill="#1f2328" font-size="10">0.9.0</text>
<text x="248.6" y="260" text-anchor="middle" fill="#1f2328" font-size="10">0.12.0</text>
<text x="306.3" y="260" text-anchor="middle" fill="#1f2328" font-size="10">0.15.0</text>
<text x="364.1" y="260" text-anchor="middle" fill="#1f2328" font-size="10">0.18.0</text>
<text x="421.9" y="260" text-anchor="middle" fill="#1f2328" font-size="10">0.21.0</text>
<text x="479.6" y="260" text-anchor="middle" fill="#1f2328" font-size="10">0.24.0</text>
<text x="537.4" y="260" text-anchor="middle" fill="#1f2328" font-size="10">0.27.0</text>
<text x="595.2" y="260" text-anchor="middle" fill="#1f2328" font-size="10">0.30.0</text>
<text x="652.9" y="260" text-anchor="middle" fill="#1f2328" font-size="10">0.32.0</text>
<text x="710.7" y="260" text-anchor="middle" fill="#1f2328" font-size="10">0.35.0</text>
<text x="768.5" y="260" text-anchor="middle" fill="#1f2328" font-size="10">0.37.0</text>
<text x="826.2" y="260" text-anchor="middle" fill="#1f2328" font-size="10">0.40.0</text>
<text x="884.0" y="260" text-anchor="middle" fill="#1f2328" font-size="10">0.43.0</text>
<polyline points="56.0,201.2 75.3,201.2 94.5,201.2 113.8,201.2 133.0,201.2 152.3,201.2 171.5,201.2 190.8,201.2 210.0,201.2 229.3,193.0 248.6,193.0 267.8,193.0 287.1,193.0 306.3,186.9 325.6,186.9 344.8,186.9 364.1,186.9 383.3,178.7 402.6,178.7 421.9,178.7 441.1,178.7 460.4,178.7 479.6,178.7 498.9,178.7 518.1,178.7 537.4,178.7 556.7,182.8 575.9,182.8 595.2,182.8 614.4,182.8 633.7,182.8 652.9,168.5 672.2,168.5 691.4,168.5 710.7,168.5 730.0,168.5 749.2,166.5 768.5,166.5 787.7,166.5 807.0,201.2 826.2,201.2 845.5,201.2 864.7,201.2 884.0,201.2" fill="none" stroke="#0969da" stroke-width="2"/>
<polyline points="56.0,192.2 75.3,192.2 94.5,192.2 113.8,192.2 133.0,192.2 152.3,189.3 171.5,189.3 190.8,189.3 210.0,189.3 229.3,181.2 248.6,181.2 267.8,181.2 287.1,181.2 306.3,166.1 325.6,166.1 344.8,166.1 364.1,166.1 383.3,157.9 402.6,155.1 421.9,155.1 441.1,155.1 460.4,155.1 479.6,155.1 498.9,155.1 518.1,155.1 537.4,155.1 556.7,153.4 575.9,153.4 595.2,153.4 614.4,153.4 633.7,153.4 652.9,130.2 672.2,130.2 691.4,130.2 710.7,124.5 730.0,133.0 749.2,128.9 768.5,128.9 787.7,128.9 807.0,172.6 826.2,172.6 845.5,172.6 864.7,172.6 884.0,172.6" fill="none" stroke="#8250df" stroke-width="2" stroke-dasharray="5 4"/>
<polyline points="556.7,182.8 575.9,182.8 595.2,217.5 614.4,217.5 633.7,217.5 652.9,217.5 672.2,217.5 691.4,217.5 710.7,217.5 730.0,217.5 749.2,217.5 768.5,217.5 787.7,217.5 807.0,217.5 826.2,217.5 845.5,217.5 864.7,217.5 884.0,217.5" fill="none" stroke="#1a7f37" stroke-width="2"/>
<line x1="56" y1="278" x2="78" y2="278" stroke="#0969da" stroke-width="2"/>
<text x="84" y="282" fill="#1f2328">median</text>
<line x1="134" y1="278" x2="156" y2="278" stroke="#8250df" stroke-width="2" stroke-dasharray="5 4"/>
<text x="162" y="282" fill="#1f2328">90th percentile</text>
<line x1="275" y1="278" x2="297" y2="278" stroke="#1a7f37" stroke-width="2"/>
<text x="303" y="282" fill="#1f2328">spelled out in the default report</text>
<text x="56" y="302" fill="#57606a" font-size="11">curl, django, react and gitmole; the report's brevity is the product</text>
</svg>
