<svg xmlns="http://www.w3.org/2000/svg" width="900" height="314" viewBox="0 0 900 314" font-family="-apple-system,Segoe UI,Helvetica,Arial,sans-serif" font-size="12">
<rect width="900" height="314" fill="#ffffff"/>
<text x="56" y="22" font-size="15" font-weight="600" fill="#1f2328">Findings per repository</text>
<line x1="56" y1="244.0" x2="884" y2="244.0" stroke="#d0d7de" stroke-width="1"/>
<text x="50" y="248.0" text-anchor="end" fill="#1f2328">0</text>
<line x1="56" y1="193.0" x2="884" y2="193.0" stroke="#d0d7de" stroke-width="1"/>
<text x="50" y="197.0" text-anchor="end" fill="#1f2328">12</text>
<line x1="56" y1="142.0" x2="884" y2="142.0" stroke="#d0d7de" stroke-width="1"/>
<text x="50" y="146.0" text-anchor="end" fill="#1f2328">25</text>
<line x1="56" y1="91.0" x2="884" y2="91.0" stroke="#d0d7de" stroke-width="1"/>
<text x="50" y="95.0" text-anchor="end" fill="#1f2328">38</text>
<line x1="56" y1="40.0" x2="884" y2="40.0" stroke="#d0d7de" stroke-width="1"/>
<text x="50" y="44.0" text-anchor="end" fill="#1f2328">50</text>
<text x="56.0" y="260" text-anchor="middle" fill="#1f2328" font-size="10">0.2.0</text>
<text x="157.0" y="260" text-anchor="middle" fill="#1f2328" font-size="10">0.7.0</text>
<text x="217.6" y="260" text-anchor="middle" fill="#1f2328" font-size="10">0.10.0</text>
<text x="278.1" y="260" text-anchor="middle" fill="#1f2328" font-size="10">0.13.1</text>
<text x="338.7" y="260" text-anchor="middle" fill="#1f2328" font-size="10">0.16.0</text>
<text x="399.3" y="260" text-anchor="middle" fill="#1f2328" font-size="10">0.19.0</text>
<text x="459.9" y="260" text-anchor="middle" fill="#1f2328" font-size="10">0.22.0</text>
<text x="520.5" y="260" text-anchor="middle" fill="#1f2328" font-size="10">0.25.0</text>
<text x="581.1" y="260" text-anchor="middle" fill="#1f2328" font-size="10">0.28.0</text>
<text x="641.7" y="260" text-anchor="middle" fill="#1f2328" font-size="10">0.30.1</text>
<text x="702.2" y="260" text-anchor="middle" fill="#1f2328" font-size="10">0.33.0</text>
<text x="762.8" y="260" text-anchor="middle" fill="#1f2328" font-size="10">0.35.1</text>
<text x="823.4" y="260" text-anchor="middle" fill="#1f2328" font-size="10">0.38.0</text>
<text x="884.0" y="260" text-anchor="middle" fill="#1f2328" font-size="10">0.41.0</text>
<polyline points="56.0,201.2 76.2,201.2 96.4,201.2 116.6,201.2 136.8,201.2 157.0,201.2 177.2,201.2 197.4,201.2 217.6,201.2 237.8,193.0 258.0,193.0 278.1,193.0 298.3,193.0 318.5,186.9 338.7,186.9 358.9,186.9 379.1,186.9 399.3,178.7 419.5,178.7 439.7,178.7 459.9,178.7 480.1,178.7 500.3,178.7 520.5,178.7 540.7,178.7 560.9,178.7 581.1,182.8 601.3,182.8 621.5,182.8 641.7,182.8 661.9,182.8 682.0,168.5 702.2,168.5 722.4,168.5 742.6,168.5 762.8,168.5 783.0,166.5 803.2,166.5 823.4,166.5 843.6,201.2 863.8,201.2 884.0,201.2" fill="none" stroke="#0969da" stroke-width="2"/>
<polyline points="56.0,192.2 76.2,192.2 96.4,192.2 116.6,192.2 136.8,192.2 157.0,189.3 177.2,189.3 197.4,189.3 217.6,189.3 237.8,181.2 258.0,181.2 278.1,181.2 298.3,181.2 318.5,166.1 338.7,166.1 358.9,166.1 379.1,166.1 399.3,157.9 419.5,155.1 439.7,155.1 459.9,155.1 480.1,155.1 500.3,155.1 520.5,155.1 540.7,155.1 560.9,155.1 581.1,153.4 601.3,153.4 621.5,153.4 641.7,153.4 661.9,153.4 682.0,130.2 702.2,130.2 722.4,130.2 742.6,124.5 762.8,133.0 783.0,128.9 803.2,128.9 823.4,128.9 843.6,172.6 863.8,172.6 884.0,172.6" fill="none" stroke="#8250df" stroke-width="2" stroke-dasharray="5 4"/>
<polyline points="581.1,182.8 601.3,182.8 621.5,217.5 641.7,217.5 661.9,217.5 682.0,217.5 702.2,217.5 722.4,217.5 742.6,217.5 762.8,217.5 783.0,217.5 803.2,217.5 823.4,217.5 843.6,217.5 863.8,217.5 884.0,217.5" fill="none" stroke="#1a7f37" stroke-width="2"/>
<line x1="56" y1="278" x2="78" y2="278" stroke="#0969da" stroke-width="2"/>
<text x="84" y="282" fill="#1f2328">median</text>
<line x1="134" y1="278" x2="156" y2="278" stroke="#8250df" stroke-width="2" stroke-dasharray="5 4"/>
<text x="162" y="282" fill="#1f2328">90th percentile</text>
<line x1="275" y1="278" x2="297" y2="278" stroke="#1a7f37" stroke-width="2"/>
<text x="303" y="282" fill="#1f2328">spelled out in the default report</text>
<text x="56" y="302" fill="#57606a" font-size="11">curl, django, react and gitmole; the report's brevity is the product</text>
</svg>
