<svg xmlns="http://www.w3.org/2000/svg" width="900" height="314" viewBox="0 0 900 314" font-family="-apple-system,Segoe UI,Helvetica,Arial,sans-serif" font-size="12">
<rect width="900" height="314" fill="#ffffff"/>
<text x="56" y="22" font-size="15" font-weight="600" fill="#1f2328">Findings per repository</text>
<line x1="56" y1="244.0" x2="884" y2="244.0" stroke="#d0d7de" stroke-width="1"/>
<text x="50" y="248.0" text-anchor="end" fill="#1f2328">0</text>
<line x1="56" y1="193.0" x2="884" y2="193.0" stroke="#d0d7de" stroke-width="1"/>
<text x="50" y="197.0" text-anchor="end" fill="#1f2328">12</text>
<line x1="56" y1="142.0" x2="884" y2="142.0" stroke="#d0d7de" stroke-width="1"/>
<text x="50" y="146.0" text-anchor="end" fill="#1f2328">25</text>
<line x1="56" y1="91.0" x2="884" y2="91.0" stroke="#d0d7de" stroke-width="1"/>
<text x="50" y="95.0" text-anchor="end" fill="#1f2328">38</text>
<line x1="56" y1="40.0" x2="884" y2="40.0" stroke="#d0d7de" stroke-width="1"/>
<text x="50" y="44.0" text-anchor="end" fill="#1f2328">50</text>
<text x="56.0" y="260" text-anchor="middle" fill="#1f2328" font-size="10">0.2.0</text>
<text x="150.1" y="260" text-anchor="middle" fill="#1f2328" font-size="10">0.7.0</text>
<text x="206.5" y="260" text-anchor="middle" fill="#1f2328" font-size="10">0.10.0</text>
<text x="263.0" y="260" text-anchor="middle" fill="#1f2328" font-size="10">0.13.1</text>
<text x="319.5" y="260" text-anchor="middle" fill="#1f2328" font-size="10">0.16.0</text>
<text x="375.9" y="260" text-anchor="middle" fill="#1f2328" font-size="10">0.19.0</text>
<text x="432.4" y="260" text-anchor="middle" fill="#1f2328" font-size="10">0.22.0</text>
<text x="488.8" y="260" text-anchor="middle" fill="#1f2328" font-size="10">0.25.0</text>
<text x="545.3" y="260" text-anchor="middle" fill="#1f2328" font-size="10">0.28.0</text>
<text x="601.7" y="260" text-anchor="middle" fill="#1f2328" font-size="10">0.30.1</text>
<text x="658.2" y="260" text-anchor="middle" fill="#1f2328" font-size="10">0.33.0</text>
<text x="714.6" y="260" text-anchor="middle" fill="#1f2328" font-size="10">0.35.1</text>
<text x="771.1" y="260" text-anchor="middle" fill="#1f2328" font-size="10">0.38.0</text>
<text x="827.5" y="260" text-anchor="middle" fill="#1f2328" font-size="10">0.41.0</text>
<text x="884.0" y="260" text-anchor="middle" fill="#1f2328" font-size="10">0.43.1</text>
<polyline points="56.0,201.2 74.8,201.2 93.6,201.2 112.5,201.2 131.3,201.2 150.1,201.2 168.9,201.2 187.7,201.2 206.5,201.2 225.4,193.0 244.2,193.0 263.0,193.0 281.8,193.0 300.6,186.9 319.5,186.9 338.3,186.9 357.1,186.9 375.9,178.7 394.7,178.7 413.5,178.7 432.4,178.7 451.2,178.7 470.0,178.7 488.8,178.7 507.6,178.7 526.5,178.7 545.3,182.8 564.1,182.8 582.9,182.8 601.7,182.8 620.5,182.8 639.4,168.5 658.2,168.5 677.0,168.5 695.8,168.5 714.6,168.5 733.5,166.5 752.3,166.5 771.1,166.5 789.9,201.2 808.7,201.2 827.5,201.2 846.4,201.2 865.2,201.2 884.0,201.2" fill="none" stroke="#0969da" stroke-width="2"/>
<polyline points="56.0,192.2 74.8,192.2 93.6,192.2 112.5,192.2 131.3,192.2 150.1,189.3 168.9,189.3 187.7,189.3 206.5,189.3 225.4,181.2 244.2,181.2 263.0,181.2 281.8,181.2 300.6,166.1 319.5,166.1 338.3,166.1 357.1,166.1 375.9,157.9 394.7,155.1 413.5,155.1 432.4,155.1 451.2,155.1 470.0,155.1 488.8,155.1 507.6,155.1 526.5,155.1 545.3,153.4 564.1,153.4 582.9,153.4 601.7,153.4 620.5,153.4 639.4,130.2 658.2,130.2 677.0,130.2 695.8,124.5 714.6,133.0 733.5,128.9 752.3,128.9 771.1,128.9 789.9,172.6 808.7,172.6 827.5,172.6 846.4,172.6 865.2,172.6 884.0,172.6" fill="none" stroke="#8250df" stroke-width="2" stroke-dasharray="5 4"/>
<polyline points="545.3,182.8 564.1,182.8 582.9,217.5 601.7,217.5 620.5,217.5 639.4,217.5 658.2,217.5 677.0,217.5 695.8,217.5 714.6,217.5 733.5,217.5 752.3,217.5 771.1,217.5 789.9,217.5 808.7,217.5 827.5,217.5 846.4,217.5 865.2,217.5 884.0,217.5" fill="none" stroke="#1a7f37" stroke-width="2"/>
<line x1="56" y1="278" x2="78" y2="278" stroke="#0969da" stroke-width="2"/>
<text x="84" y="282" fill="#1f2328">median</text>
<line x1="134" y1="278" x2="156" y2="278" stroke="#8250df" stroke-width="2" stroke-dasharray="5 4"/>
<text x="162" y="282" fill="#1f2328">90th percentile</text>
<line x1="275" y1="278" x2="297" y2="278" stroke="#1a7f37" stroke-width="2"/>
<text x="303" y="282" fill="#1f2328">spelled out in the default report</text>
<text x="56" y="302" fill="#57606a" font-size="11">curl, django, react and gitmole; the report's brevity is the product</text>
</svg>
