<svg xmlns="http://www.w3.org/2000/svg" width="900" height="314" viewBox="0 0 900 314" font-family="-apple-system,Segoe UI,Helvetica,Arial,sans-serif" font-size="12">
<rect width="900" height="314" fill="#ffffff"/>
<text x="56" y="22" font-size="15" font-weight="600" fill="#1f2328">Is it right? The watch list's share of the gap from random to perfect (headroom at 15)</text>
<line x1="56" y1="244.0" x2="884" y2="244.0" stroke="#d0d7de" stroke-width="1"/>
<text x="50" y="248.0" text-anchor="end" fill="#1f2328">0%</text>
<line x1="56" y1="193.0" x2="884" y2="193.0" stroke="#d0d7de" stroke-width="1"/>
<text x="50" y="197.0" text-anchor="end" fill="#1f2328">25%</text>
<line x1="56" y1="142.0" x2="884" y2="142.0" stroke="#d0d7de" stroke-width="1"/>
<text x="50" y="146.0" text-anchor="end" fill="#1f2328">50%</text>
<line x1="56" y1="91.0" x2="884" y2="91.0" stroke="#d0d7de" stroke-width="1"/>
<text x="50" y="95.0" text-anchor="end" fill="#1f2328">75%</text>
<line x1="56" y1="40.0" x2="884" y2="40.0" stroke="#d0d7de" stroke-width="1"/>
<text x="50" y="44.0" text-anchor="end" fill="#1f2328">100%</text>
<text x="56.0" y="260" text-anchor="middle" fill="#1f2328" font-size="10">0.2.0</text>
<text x="131.3" y="260" text-anchor="middle" fill="#1f2328" font-size="10">0.5.0</text>
<text x="206.5" y="260" text-anchor="middle" fill="#1f2328" font-size="10">0.8.0</text>
<text x="281.8" y="260" text-anchor="middle" fill="#1f2328" font-size="10">0.11.0</text>
<text x="357.1" y="260" text-anchor="middle" fill="#1f2328" font-size="10">0.14.0</text>
<text x="432.4" y="260" text-anchor="middle" fill="#1f2328" font-size="10">0.17.0</text>
<text x="507.6" y="260" text-anchor="middle" fill="#1f2328" font-size="10">0.20.0</text>
<text x="582.9" y="260" text-anchor="middle" fill="#1f2328" font-size="10">0.23.0</text>
<text x="658.2" y="260" text-anchor="middle" fill="#1f2328" font-size="10">0.26.0</text>
<text x="733.5" y="260" text-anchor="middle" fill="#1f2328" font-size="10">0.29.0</text>
<text x="808.7" y="260" text-anchor="middle" fill="#1f2328" font-size="10">0.31.0</text>
<text x="884.0" y="260" text-anchor="middle" fill="#1f2328" font-size="10">0.34.0</text>
<polygon points="56.0,53.1 81.1,53.1 106.2,53.1 131.3,53.1 156.4,53.1 181.5,53.1 206.5,53.1 231.6,53.1 256.7,53.5 281.8,53.5 306.9,53.5 332.0,53.5 357.1,53.5 382.2,53.5 407.3,53.5 432.4,53.5 457.5,53.5 482.5,53.5 507.6,53.5 532.7,53.5 557.8,53.5 582.9,53.5 608.0,53.5 633.1,53.5 658.2,53.5 683.3,53.5 708.4,53.5 733.5,53.5 758.5,53.5 783.6,53.5 808.7,53.5 833.8,53.5 858.9,53.5 884.0,53.5 884.0,118.1 858.9,118.1 833.8,118.1 808.7,118.1 783.6,118.1 758.5,117.3 733.5,117.3 708.4,117.3 683.3,117.3 658.2,117.3 633.1,124.0 608.0,124.0 582.9,124.0 557.8,124.0 532.7,124.0 507.6,124.0 482.5,124.0 457.5,124.0 432.4,124.0 407.3,124.0 382.2,124.0 357.1,124.0 332.0,124.0 306.9,124.0 281.8,124.0 256.7,125.9 231.6,121.0 206.5,121.0 181.5,154.4 156.4,154.4 131.3,154.4 106.2,154.4 81.1,154.4 56.0,154.4" fill="#0969da" fill-opacity="0.12" stroke="none"/>
<polyline points="56.0,94.3 81.1,94.3 106.2,94.3 131.3,94.3 156.4,94.3 181.5,86.1 206.5,56.7 231.6,56.7 256.7,57.1 281.8,54.3 306.9,54.3 332.0,54.3 357.1,54.3 382.2,54.3 407.3,54.3 432.4,54.3 457.5,54.3 482.5,54.3 507.6,54.3 532.7,54.3 557.8,54.3 582.9,54.3 608.0,54.3 633.1,54.3 658.2,54.3 683.3,54.3 708.4,54.3 733.5,54.3 758.5,54.3 783.6,54.3 808.7,54.3 833.8,54.3 858.9,54.3 884.0,54.3" fill="none" stroke="#0969da" stroke-width="2"/>
<polyline points="56.0,99.8 81.1,99.8 106.2,99.8 131.3,99.8 156.4,99.8 181.5,91.6 206.5,95.5 231.6,95.5 256.7,96.7 281.8,99.8 306.9,99.8 332.0,99.8 357.1,99.8 382.2,99.8 407.3,99.8 432.4,99.8 457.5,99.8 482.5,99.8 507.6,99.8 532.7,99.8 557.8,99.8 582.9,99.8 608.0,99.8 633.1,99.8 658.2,99.8 683.3,99.8 708.4,99.8 733.5,99.8 758.5,99.8 783.6,99.8 808.7,99.8 833.8,99.8 858.9,99.8 884.0,99.8" fill="none" stroke="#57606a" stroke-width="2" stroke-dasharray="5 4"/>
<circle cx="658.2" cy="118.7" r="2.5" fill="#bf3989"/>
<line x1="56" y1="278" x2="78" y2="278" stroke="#0969da" stroke-width="2"/>
<text x="84" y="282" fill="#1f2328">watch list</text>
<line x1="162" y1="278" x2="184" y2="278" stroke="#57606a" stroke-width="2" stroke-dasharray="5 4"/>
<text x="190" y="282" fill="#1f2328">churn alone</text>
<line x1="275" y1="278" x2="297" y2="278" stroke="#bf3989" stroke-width="2"/>
<text x="303" y="282" fill="#1f2328">watch list, 13 held-out repositories</text>
<text x="56" y="302" fill="#57606a" font-size="11">curl, django, react and gitmole (every release), six cut-offs, fixes in the next six months; dots: independent labels, repositories never tuned on</text>
</svg>
