<svg xmlns="http://www.w3.org/2000/svg" width="900" height="314" viewBox="0 0 900 314" font-family="-apple-system,Segoe UI,Helvetica,Arial,sans-serif" font-size="12">
<rect width="900" height="314" fill="#ffffff"/>
<text x="56" y="22" font-size="15" font-weight="600" fill="#1f2328">Terminal report length (lines, median)</text>
<line x1="56" y1="244.0" x2="884" y2="244.0" stroke="#d0d7de" stroke-width="1"/>
<text x="50" y="248.0" text-anchor="end" fill="#1f2328">0</text>
<line x1="56" y1="193.0" x2="884" y2="193.0" stroke="#d0d7de" stroke-width="1"/>
<text x="50" y="197.0" text-anchor="end" fill="#1f2328">125</text>
<line x1="56" y1="142.0" x2="884" y2="142.0" stroke="#d0d7de" stroke-width="1"/>
<text x="50" y="146.0" text-anchor="end" fill="#1f2328">250</text>
<line x1="56" y1="91.0" x2="884" y2="91.0" stroke="#d0d7de" stroke-width="1"/>
<text x="50" y="95.0" text-anchor="end" fill="#1f2328">375</text>
<line x1="56" y1="40.0" x2="884" y2="40.0" stroke="#d0d7de" stroke-width="1"/>
<text x="50" y="44.0" text-anchor="end" fill="#1f2328">500</text>
<text x="56.0" y="260" text-anchor="middle" fill="#1f2328" font-size="10">0.2.0</text>
<text x="128.0" y="260" text-anchor="middle" fill="#1f2328" font-size="10">0.6.0</text>
<text x="182.0" y="260" text-anchor="middle" fill="#1f2328" font-size="10">0.9.0</text>
<text x="236.0" y="260" text-anchor="middle" fill="#1f2328" font-size="10">0.12.0</text>
<text x="290.0" y="260" text-anchor="middle" fill="#1f2328" font-size="10">0.15.0</text>
<text x="344.0" y="260" text-anchor="middle" fill="#1f2328" font-size="10">0.18.0</text>
<text x="398.0" y="260" text-anchor="middle" fill="#1f2328" font-size="10">0.21.0</text>
<text x="452.0" y="260" text-anchor="middle" fill="#1f2328" font-size="10">0.24.0</text>
<text x="506.0" y="260" text-anchor="middle" fill="#1f2328" font-size="10">0.27.0</text>
<text x="560.0" y="260" text-anchor="middle" fill="#1f2328" font-size="10">0.30.0</text>
<text x="614.0" y="260" text-anchor="middle" fill="#1f2328" font-size="10">0.32.0</text>
<text x="668.0" y="260" text-anchor="middle" fill="#1f2328" font-size="10">0.35.0</text>
<text x="722.0" y="260" text-anchor="middle" fill="#1f2328" font-size="10">0.37.0</text>
<text x="776.0" y="260" text-anchor="middle" fill="#1f2328" font-size="10">0.40.0</text>
<text x="830.0" y="260" text-anchor="middle" fill="#1f2328" font-size="10">0.43.0</text>
<text x="884.0" y="260" text-anchor="middle" fill="#1f2328" font-size="10">0.45.0</text>
<polyline points="56.0,157.5 74.0,157.5 92.0,157.3 110.0,157.3 128.0,156.5 146.0,154.6 164.0,153.6 182.0,164.2 200.0,164.2 218.0,152.0 236.0,153.0 254.0,153.0 272.0,151.0 290.0,145.9 308.0,145.9 326.0,145.7 344.0,145.7 362.0,138.5 380.0,138.5 398.0,138.5 416.0,138.5 434.0,138.5 452.0,138.9 470.0,138.5 488.0,138.5 506.0,138.5 524.0,140.6 542.0,140.6 560.0,162.0 578.0,162.0 596.0,162.0 614.0,160.6 632.0,160.6 650.0,160.6 668.0,160.6 686.0,161.4 704.0,161.4 722.0,161.4 740.0,161.8 758.0,165.3 776.0,166.5 794.0,167.3 812.0,167.3 830.0,166.9 848.0,167.3 866.0,166.7 884.0,181.4" fill="none" stroke="#0969da" stroke-width="2"/>
<line x1="56" y1="278" x2="78" y2="278" stroke="#0969da" stroke-width="2"/>
<text x="84" y="282" fill="#1f2328">lines at 80 columns, banner included</text>
<text x="56" y="302" fill="#57606a" font-size="11">the default report, curl, django, react and gitmole</text>
</svg>
