<svg xmlns="http://www.w3.org/2000/svg" width="900" height="314" viewBox="0 0 900 314" font-family="-apple-system,Segoe UI,Helvetica,Arial,sans-serif" font-size="12">
<rect width="900" height="314" fill="#ffffff"/>
<text x="56" y="22" font-size="15" font-weight="600" fill="#1f2328">Does it run? Robustness, gate catch rate and scored share</text>
<line x1="56" y1="244.0" x2="884" y2="244.0" stroke="#d0d7de" stroke-width="1"/>
<text x="50" y="248.0" text-anchor="end" fill="#1f2328">0%</text>
<line x1="56" y1="193.0" x2="884" y2="193.0" stroke="#d0d7de" stroke-width="1"/>
<text x="50" y="197.0" text-anchor="end" fill="#1f2328">25%</text>
<line x1="56" y1="142.0" x2="884" y2="142.0" stroke="#d0d7de" stroke-width="1"/>
<text x="50" y="146.0" text-anchor="end" fill="#1f2328">50%</text>
<line x1="56" y1="91.0" x2="884" y2="91.0" stroke="#d0d7de" stroke-width="1"/>
<text x="50" y="95.0" text-anchor="end" fill="#1f2328">75%</text>
<line x1="56" y1="40.0" x2="884" y2="40.0" stroke="#d0d7de" stroke-width="1"/>
<text x="50" y="44.0" text-anchor="end" fill="#1f2328">100%</text>
<text x="56.0" y="260" text-anchor="middle" fill="#1f2328" font-size="10">0.2.0</text>
<text x="138.8" y="260" text-anchor="middle" fill="#1f2328" font-size="10">0.6.0</text>
<text x="200.9" y="260" text-anchor="middle" fill="#1f2328" font-size="10">0.9.0</text>
<text x="263.0" y="260" text-anchor="middle" fill="#1f2328" font-size="10">0.12.0</text>
<text x="325.1" y="260" text-anchor="middle" fill="#1f2328" font-size="10">0.15.0</text>
<text x="387.2" y="260" text-anchor="middle" fill="#1f2328" font-size="10">0.18.0</text>
<text x="449.3" y="260" text-anchor="middle" fill="#1f2328" font-size="10">0.21.0</text>
<text x="511.4" y="260" text-anchor="middle" fill="#1f2328" font-size="10">0.24.0</text>
<text x="573.5" y="260" text-anchor="middle" fill="#1f2328" font-size="10">0.27.0</text>
<text x="635.6" y="260" text-anchor="middle" fill="#1f2328" font-size="10">0.30.0</text>
<text x="697.7" y="260" text-anchor="middle" fill="#1f2328" font-size="10">0.32.0</text>
<text x="759.8" y="260" text-anchor="middle" fill="#1f2328" font-size="10">0.35.0</text>
<text x="821.9" y="260" text-anchor="middle" fill="#1f2328" font-size="10">0.37.0</text>
<text x="884.0" y="260" text-anchor="middle" fill="#1f2328" font-size="10">0.40.0</text>
<polyline points="56.0,53.6 76.7,53.6 97.4,53.6 118.1,53.6 138.8,53.6 159.5,53.6 180.2,67.2 200.9,67.2 221.6,67.2 242.3,67.2 263.0,67.2 283.7,67.2 304.4,67.2 325.1,67.2 345.8,67.2 366.5,67.2 387.2,67.2 407.9,67.2 428.6,67.2 449.3,67.2 470.0,67.2 490.7,67.2 511.4,67.2 532.1,67.2 552.8,59.1 573.5,64.0 594.2,40.0 614.9,40.0 635.6,40.0 656.3,40.0 677.0,40.0 697.7,40.0 718.4,40.0 739.1,40.0 759.8,40.0 780.5,40.0 801.2,40.0 821.9,40.0 842.6,40.0 863.3,40.0 884.0,40.0" fill="none" stroke="#0969da" stroke-width="2"/>
<polyline points="56.0,176.0 76.7,176.0 97.4,176.0 118.1,176.0 138.8,176.0 159.5,176.0 180.2,176.0 200.9,176.0 221.6,176.0 242.3,176.0 263.0,176.0 283.7,176.0 304.4,176.0 325.1,40.0 345.8,40.0 366.5,40.0 387.2,40.0 407.9,40.0 428.6,40.0 449.3,40.0 470.0,40.0 490.7,40.0 511.4,40.0 532.1,40.0 552.8,40.0 573.5,40.0 594.2,40.0 614.9,40.0 635.6,40.0 656.3,40.0 677.0,40.0 697.7,40.0 718.4,40.0 739.1,40.0 759.8,40.0 780.5,40.0 801.2,40.0 821.9,40.0 842.6,40.0 863.3,40.0 884.0,40.0" fill="none" stroke="#8250df" stroke-width="2"/>
<polyline points="221.6,200.8 242.3,200.8 263.0,200.8 283.7,200.8 304.4,200.8 325.1,200.8 345.8,200.8 366.5,200.8 387.2,200.8 407.9,200.8 428.6,200.8 449.3,200.8 470.0,200.8 490.7,200.8 511.4,200.8 532.1,200.8 552.8,200.8 573.5,200.8 594.2,200.8 614.9,200.8 635.6,200.8 656.3,197.9 677.0,197.9 697.7,197.9 718.4,197.9 739.1,197.9 759.8,197.9 780.5,197.9 801.2,197.9 821.9,197.9 842.6,197.9 863.3,197.9 884.0,197.9" fill="none" stroke="#1a7f37" stroke-width="2"/>
<line x1="56" y1="278" x2="78" y2="278" stroke="#0969da" stroke-width="2"/>
<text x="84" y="282" fill="#1f2328">runs completed</text>
<line x1="190" y1="278" x2="212" y2="278" stroke="#8250df" stroke-width="2"/>
<text x="218" y="282" fill="#1f2328">gate cases caught</text>
<line x1="345" y1="278" x2="367" y2="278" stroke="#1a7f37" stroke-width="2"/>
<text x="373" y="282" fill="#1f2328">tracked text files scored</text>
<text x="56" y="302" fill="#57606a" font-size="11">awkward inputs and gate fixtures included</text>
</svg>
