<svg xmlns="http://www.w3.org/2000/svg" width="900" height="300" viewBox="0 0 900 300" font-family="-apple-system,Segoe UI,Helvetica,Arial,sans-serif" font-size="12">
<rect width="900" height="300" fill="#ffffff"/>
<text x="56" y="22" font-size="15" font-weight="600" fill="#1f2328">Run time of the development set (seconds, one repository at a time)</text>
<line x1="56" y1="244.0" x2="884" y2="244.0" stroke="#d0d7de" stroke-width="1"/>
<text x="50" y="248.0" text-anchor="end" fill="#1f2328">0</text>
<line x1="56" y1="193.0" x2="884" y2="193.0" stroke="#d0d7de" stroke-width="1"/>
<text x="50" y="197.0" text-anchor="end" fill="#1f2328">250</text>
<line x1="56" y1="142.0" x2="884" y2="142.0" stroke="#d0d7de" stroke-width="1"/>
<text x="50" y="146.0" text-anchor="end" fill="#1f2328">500</text>
<line x1="56" y1="91.0" x2="884" y2="91.0" stroke="#d0d7de" stroke-width="1"/>
<text x="50" y="95.0" text-anchor="end" fill="#1f2328">750</text>
<line x1="56" y1="40.0" x2="884" y2="40.0" stroke="#d0d7de" stroke-width="1"/>
<text x="50" y="44.0" text-anchor="end" fill="#1f2328">1,000</text>
<text x="56.0" y="260" text-anchor="middle" fill="#1f2328" font-size="10">0.2.0</text>
<text x="117.3" y="260" text-anchor="middle" fill="#1f2328" font-size="10">0.4.0</text>
<text x="178.7" y="260" text-anchor="middle" fill="#1f2328" font-size="10">0.6.0</text>
<text x="240.0" y="260" text-anchor="middle" fill="#1f2328" font-size="10">0.8.0</text>
<text x="301.3" y="260" text-anchor="middle" fill="#1f2328" font-size="10">0.10.0</text>
<text x="362.7" y="260" text-anchor="middle" fill="#1f2328" font-size="10">0.12.0</text>
<text x="424.0" y="260" text-anchor="middle" fill="#1f2328" font-size="10">0.14.0</text>
<text x="485.3" y="260" text-anchor="middle" fill="#1f2328" font-size="10">0.16.0</text>
<text x="546.7" y="260" text-anchor="middle" fill="#1f2328" font-size="10">0.18.0</text>
<text x="608.0" y="260" text-anchor="middle" fill="#1f2328" font-size="10">0.20.0</text>
<text x="669.3" y="260" text-anchor="middle" fill="#1f2328" font-size="10">0.22.0</text>
<text x="730.7" y="260" text-anchor="middle" fill="#1f2328" font-size="10">0.24.0</text>
<text x="792.0" y="260" text-anchor="middle" fill="#1f2328" font-size="10">0.26.0</text>
<text x="853.3" y="260" text-anchor="middle" fill="#1f2328" font-size="10">0.28.0</text>
<text x="884.0" y="260" text-anchor="middle" fill="#1f2328" font-size="10">0.29.0</text>
<polyline points="56.0,203.4 86.7,204.2 117.3,209.0 148.0,208.3 178.7,208.6 209.3,197.1 240.0,197.1 270.7,197.4 301.3,197.2 332.0,189.0 362.7,188.9 393.3,189.0 424.0,188.6 454.7,188.0 485.3,188.0 516.0,187.2 546.7,186.6 577.3,186.6 608.0,187.0 638.7,185.5 669.3,185.8 700.0,185.7 730.7,186.3 761.3,186.1 792.0,185.7 822.7,186.0 853.3,106.5 884.0,105.3" fill="none" stroke="#0969da" stroke-width="2"/>
<line x1="56" y1="282" x2="78" y2="282" stroke="#0969da" stroke-width="2"/>
<text x="84" y="286" fill="#1f2328">seconds</text>
<text x="884" y="286" text-anchor="end" fill="#57606a" font-size="11">one laptop; each run records the load average</text>
</svg>
