<svg xmlns="http://www.w3.org/2000/svg" width="900" height="314" viewBox="0 0 900 314" font-family="-apple-system,Segoe UI,Helvetica,Arial,sans-serif" font-size="12">
<rect width="900" height="314" fill="#ffffff"/>
<text x="56" y="22" font-size="15" font-weight="600" fill="#1f2328">Run time of curl, django, react and gitmole (seconds, one repository at a time)</text>
<line x1="56" y1="244.0" x2="884" y2="244.0" stroke="#d0d7de" stroke-width="1"/>
<text x="50" y="248.0" text-anchor="end" fill="#1f2328">0</text>
<line x1="56" y1="193.0" x2="884" y2="193.0" stroke="#d0d7de" stroke-width="1"/>
<text x="50" y="197.0" text-anchor="end" fill="#1f2328">125</text>
<line x1="56" y1="142.0" x2="884" y2="142.0" stroke="#d0d7de" stroke-width="1"/>
<text x="50" y="146.0" text-anchor="end" fill="#1f2328">250</text>
<line x1="56" y1="91.0" x2="884" y2="91.0" stroke="#d0d7de" stroke-width="1"/>
<text x="50" y="95.0" text-anchor="end" fill="#1f2328">375</text>
<line x1="56" y1="40.0" x2="884" y2="40.0" stroke="#d0d7de" stroke-width="1"/>
<text x="50" y="44.0" text-anchor="end" fill="#1f2328">500</text>
<text x="56.0" y="260" text-anchor="middle" fill="#1f2328" font-size="10">0.2.0</text>
<text x="145.5" y="260" text-anchor="middle" fill="#1f2328" font-size="10">0.6.0</text>
<text x="212.6" y="260" text-anchor="middle" fill="#1f2328" font-size="10">0.9.0</text>
<text x="279.8" y="260" text-anchor="middle" fill="#1f2328" font-size="10">0.12.0</text>
<text x="346.9" y="260" text-anchor="middle" fill="#1f2328" font-size="10">0.15.0</text>
<text x="414.1" y="260" text-anchor="middle" fill="#1f2328" font-size="10">0.18.0</text>
<text x="481.2" y="260" text-anchor="middle" fill="#1f2328" font-size="10">0.21.0</text>
<text x="548.3" y="260" text-anchor="middle" fill="#1f2328" font-size="10">0.24.0</text>
<text x="615.5" y="260" text-anchor="middle" fill="#1f2328" font-size="10">0.27.0</text>
<text x="682.6" y="260" text-anchor="middle" fill="#1f2328" font-size="10">0.30.0</text>
<text x="749.7" y="260" text-anchor="middle" fill="#1f2328" font-size="10">0.32.0</text>
<text x="816.9" y="260" text-anchor="middle" fill="#1f2328" font-size="10">0.35.0</text>
<text x="884.0" y="260" text-anchor="middle" fill="#1f2328" font-size="10">0.37.0</text>
<polyline points="56.0,162.7 78.4,164.3 100.8,173.9 123.1,172.6 145.5,173.3 167.9,150.2 190.3,150.2 212.6,150.9 235.0,150.3 257.4,134.1 279.8,133.7 302.2,134.0 324.5,133.1 346.9,132.0 369.3,132.0 391.7,130.3 414.1,129.2 436.4,129.1 458.8,130.0 481.2,127.0 503.6,127.7 525.9,127.5 548.3,128.7 570.7,128.1 593.1,127.4 615.5,128.0 637.8,131.6 660.2,130.9 682.6,121.4 705.0,120.2 727.4,127.9 749.7,127.6 772.1,127.5 794.5,128.5 816.9,80.1 839.2,101.7 861.6,102.5 884.0,129.9" fill="none" stroke="#0969da" stroke-width="2"/>
<line x1="56" y1="278" x2="78" y2="278" stroke="#0969da" stroke-width="2"/>
<text x="84" y="282" fill="#1f2328">seconds</text>
<text x="56" y="302" fill="#57606a" font-size="11">one laptop; each run records the load average</text>
</svg>
