<svg xmlns="http://www.w3.org/2000/svg" width="900" height="314" viewBox="0 0 900 314" font-family="-apple-system,Segoe UI,Helvetica,Arial,sans-serif" font-size="12">
<rect width="900" height="314" fill="#ffffff"/>
<text x="56" y="22" font-size="15" font-weight="600" fill="#1f2328">Is it useful? Findings the default report spells out that one agent labelled actionable</text>
<line x1="56" y1="244.0" x2="884" y2="244.0" stroke="#d0d7de" stroke-width="1"/>
<text x="50" y="248.0" text-anchor="end" fill="#1f2328">0%</text>
<line x1="56" y1="193.0" x2="884" y2="193.0" stroke="#d0d7de" stroke-width="1"/>
<text x="50" y="197.0" text-anchor="end" fill="#1f2328">25%</text>
<line x1="56" y1="142.0" x2="884" y2="142.0" stroke="#d0d7de" stroke-width="1"/>
<text x="50" y="146.0" text-anchor="end" fill="#1f2328">50%</text>
<line x1="56" y1="91.0" x2="884" y2="91.0" stroke="#d0d7de" stroke-width="1"/>
<text x="50" y="95.0" text-anchor="end" fill="#1f2328">75%</text>
<line x1="56" y1="40.0" x2="884" y2="40.0" stroke="#d0d7de" stroke-width="1"/>
<text x="50" y="44.0" text-anchor="end" fill="#1f2328">100%</text>
<text x="56.0" y="260" text-anchor="middle" fill="#1f2328" font-size="10">0.2.0</text>
<text x="138.8" y="260" text-anchor="middle" fill="#1f2328" font-size="10">0.6.0</text>
<text x="200.9" y="260" text-anchor="middle" fill="#1f2328" font-size="10">0.9.0</text>
<text x="263.0" y="260" text-anchor="middle" fill="#1f2328" font-size="10">0.12.0</text>
<text x="325.1" y="260" text-anchor="middle" fill="#1f2328" font-size="10">0.15.0</text>
<text x="387.2" y="260" text-anchor="middle" fill="#1f2328" font-size="10">0.18.0</text>
<text x="449.3" y="260" text-anchor="middle" fill="#1f2328" font-size="10">0.21.0</text>
<text x="511.4" y="260" text-anchor="middle" fill="#1f2328" font-size="10">0.24.0</text>
<text x="573.5" y="260" text-anchor="middle" fill="#1f2328" font-size="10">0.27.0</text>
<text x="635.6" y="260" text-anchor="middle" fill="#1f2328" font-size="10">0.30.0</text>
<text x="697.7" y="260" text-anchor="middle" fill="#1f2328" font-size="10">0.32.0</text>
<text x="759.8" y="260" text-anchor="middle" fill="#1f2328" font-size="10">0.35.0</text>
<text x="821.9" y="260" text-anchor="middle" fill="#1f2328" font-size="10">0.37.0</text>
<text x="884.0" y="260" text-anchor="middle" fill="#1f2328" font-size="10">0.40.0</text>
<polyline points="594.2,183.4 614.9,181.2 635.6,103.6 656.3,105.5 677.0,105.5 697.7,105.5 718.4,106.3 739.1,102.6 759.8,98.8 780.5,96.7 801.2,85.3 821.9,85.3 842.6,85.3 863.3,93.9 884.0,99.6" fill="none" stroke="#0969da" stroke-width="2"/>
<polyline points="594.2,43.5 614.9,42.2 635.6,45.1 656.3,42.7 677.0,42.7 697.7,42.7 718.4,42.7 739.1,47.8 759.8,53.1 780.5,53.3 801.2,77.1 821.9,137.7 842.6,137.7 863.3,153.8 884.0,164.4" fill="none" stroke="#57606a" stroke-width="2" stroke-dasharray="5 4"/>
<line x1="56" y1="278" x2="78" y2="278" stroke="#0969da" stroke-width="2"/>
<text x="84" y="282" fill="#1f2328">labelled actionable</text>
<line x1="225" y1="278" x2="247" y2="278" stroke="#57606a" stroke-width="2" stroke-dasharray="5 4"/>
<text x="253" y="282" fill="#1f2328">carrying a label at all</text>
<text x="56" y="302" fill="#57606a" font-size="11">development, large and well-kept sets; every label is one agent's (measure/labels.jsonl), none before 0.28.0</text>
</svg>
