<svg xmlns="http://www.w3.org/2000/svg" width="900" height="300" viewBox="0 0 900 300" font-family="-apple-system,Segoe UI,Helvetica,Arial,sans-serif" font-size="12">
<rect width="900" height="300" fill="#ffffff"/>
<text x="56" y="22" font-size="15" font-weight="600" fill="#1f2328">The whole ranking: ROC-AUC and recall at 20% of the lines</text>
<line x1="56" y1="244.0" x2="884" y2="244.0" stroke="#d0d7de" stroke-width="1"/>
<text x="50" y="248.0" text-anchor="end" fill="#1f2328">0</text>
<line x1="56" y1="193.0" x2="884" y2="193.0" stroke="#d0d7de" stroke-width="1"/>
<text x="50" y="197.0" text-anchor="end" fill="#1f2328">0.25</text>
<line x1="56" y1="142.0" x2="884" y2="142.0" stroke="#d0d7de" stroke-width="1"/>
<text x="50" y="146.0" text-anchor="end" fill="#1f2328">0.5</text>
<line x1="56" y1="91.0" x2="884" y2="91.0" stroke="#d0d7de" stroke-width="1"/>
<text x="50" y="95.0" text-anchor="end" fill="#1f2328">0.75</text>
<line x1="56" y1="40.0" x2="884" y2="40.0" stroke="#d0d7de" stroke-width="1"/>
<text x="50" y="44.0" text-anchor="end" fill="#1f2328">1</text>
<text x="56.0" y="260" text-anchor="middle" fill="#1f2328" font-size="10">0.2.0</text>
<text x="115.1" y="260" text-anchor="middle" fill="#1f2328" font-size="10">0.4.0</text>
<text x="174.3" y="260" text-anchor="middle" fill="#1f2328" font-size="10">0.6.0</text>
<text x="233.4" y="260" text-anchor="middle" fill="#1f2328" font-size="10">0.8.0</text>
<text x="292.6" y="260" text-anchor="middle" fill="#1f2328" font-size="10">0.10.0</text>
<text x="351.7" y="260" text-anchor="middle" fill="#1f2328" font-size="10">0.12.0</text>
<text x="410.9" y="260" text-anchor="middle" fill="#1f2328" font-size="10">0.14.0</text>
<text x="470.0" y="260" text-anchor="middle" fill="#1f2328" font-size="10">0.16.0</text>
<text x="529.1" y="260" text-anchor="middle" fill="#1f2328" font-size="10">0.18.0</text>
<text x="588.3" y="260" text-anchor="middle" fill="#1f2328" font-size="10">0.20.0</text>
<text x="647.4" y="260" text-anchor="middle" fill="#1f2328" font-size="10">0.22.0</text>
<text x="706.6" y="260" text-anchor="middle" fill="#1f2328" font-size="10">0.24.0</text>
<text x="765.7" y="260" text-anchor="middle" fill="#1f2328" font-size="10">0.26.0</text>
<text x="824.9" y="260" text-anchor="middle" fill="#1f2328" font-size="10">0.28.0</text>
<text x="884.0" y="260" text-anchor="middle" fill="#1f2328" font-size="10">0.30.0</text>
<polyline points="56.0,87.7 85.6,87.7 115.1,87.7 144.7,87.7 174.3,87.7 203.9,88.8 233.4,77.7 263.0,77.7 292.6,77.1 322.1,78.4 351.7,78.4 381.3,78.4 410.9,78.4 440.4,78.4 470.0,78.4 499.6,78.4 529.1,78.4 558.7,78.4 588.3,78.4 617.9,78.4 647.4,78.4 677.0,78.4 706.6,78.4 736.1,77.3 765.7,76.9 795.3,76.9 824.9,76.9 854.4,76.9 884.0,76.9" fill="none" stroke="#0969da" stroke-width="2"/>
<polyline points="56.0,89.2 85.6,89.2 115.1,89.2 144.7,89.2 174.3,89.2 203.9,88.8 233.4,88.6 263.0,88.6 292.6,86.5 322.1,88.1 351.7,88.1 381.3,88.1 410.9,88.1 440.4,88.1 470.0,88.1 499.6,88.1 529.1,88.1 558.7,88.1 588.3,88.1 617.9,88.1 647.4,88.1 677.0,88.1 706.6,88.1 736.1,88.1 765.7,85.9 795.3,85.9 824.9,85.9 854.4,85.9 884.0,85.9" fill="none" stroke="#0969da" stroke-width="2" stroke-dasharray="5 4"/>
<polyline points="56.0,153.4 85.6,153.4 115.1,153.4 144.7,153.4 174.3,153.4 203.9,155.9 233.4,182.8 263.0,182.8 292.6,166.3 322.1,166.5 351.7,166.5 381.3,166.5 410.9,166.5 440.4,166.5 470.0,166.5 499.6,166.5 529.1,166.5 558.7,166.5 588.3,166.5 617.9,166.5 647.4,166.5 677.0,166.5 706.6,166.5 736.1,166.5 765.7,152.2 795.3,152.2 824.9,152.2 854.4,152.2 884.0,152.2" fill="none" stroke="#8250df" stroke-width="2"/>
<polyline points="56.0,152.2 85.6,152.2 115.1,152.2 144.7,152.2 174.3,152.2 203.9,151.0 233.4,151.0 263.0,151.0 292.6,128.5 322.1,126.1 351.7,126.1 381.3,126.1 410.9,126.1 440.4,126.1 470.0,126.1 499.6,126.1 529.1,126.1 558.7,126.1 588.3,126.1 617.9,126.1 647.4,126.1 677.0,126.1 706.6,126.1 736.1,126.1 765.7,115.7 795.3,115.7 824.9,115.7 854.4,115.7 884.0,115.7" fill="none" stroke="#8250df" stroke-width="2" stroke-dasharray="5 4"/>
<line x1="56" y1="282" x2="78" y2="282" stroke="#0969da" stroke-width="2"/>
<text x="84" y="286" fill="#1f2328">AUC</text>
<line x1="113" y1="282" x2="135" y2="282" stroke="#0969da" stroke-width="2" stroke-dasharray="5 4"/>
<text x="141" y="286" fill="#1f2328">AUC, churn</text>
<line x1="219" y1="282" x2="241" y2="282" stroke="#8250df" stroke-width="2"/>
<text x="247" y="286" fill="#1f2328">recall at 20%</text>
<line x1="346" y1="282" x2="368" y2="282" stroke="#8250df" stroke-width="2" stroke-dasharray="5 4"/>
<text x="374" y="286" fill="#1f2328">recall, churn</text>
<text x="884" y="286" text-anchor="end" fill="#57606a" font-size="11">median over curl, django, react and gitmole</text>
</svg>
