<svg xmlns="http://www.w3.org/2000/svg" width="900" height="300" viewBox="0 0 900 300" font-family="-apple-system,Segoe UI,Helvetica,Arial,sans-serif" font-size="12">
<rect width="900" height="300" fill="#ffffff"/>
<text x="56" y="22" font-size="15" font-weight="600" fill="#1f2328">The whole ranking: ROC-AUC and recall at 20% of the lines</text>
<line x1="56" y1="244.0" x2="884" y2="244.0" stroke="#d0d7de" stroke-width="1"/>
<text x="50" y="248.0" text-anchor="end" fill="#1f2328">0</text>
<line x1="56" y1="193.0" x2="884" y2="193.0" stroke="#d0d7de" stroke-width="1"/>
<text x="50" y="197.0" text-anchor="end" fill="#1f2328">0.25</text>
<line x1="56" y1="142.0" x2="884" y2="142.0" stroke="#d0d7de" stroke-width="1"/>
<text x="50" y="146.0" text-anchor="end" fill="#1f2328">0.5</text>
<line x1="56" y1="91.0" x2="884" y2="91.0" stroke="#d0d7de" stroke-width="1"/>
<text x="50" y="95.0" text-anchor="end" fill="#1f2328">0.75</text>
<line x1="56" y1="40.0" x2="884" y2="40.0" stroke="#d0d7de" stroke-width="1"/>
<text x="50" y="44.0" text-anchor="end" fill="#1f2328">1</text>
<text x="56.0" y="260" text-anchor="middle" fill="#1f2328" font-size="10">0.2.0</text>
<text x="119.7" y="260" text-anchor="middle" fill="#1f2328" font-size="10">0.4.0</text>
<text x="183.4" y="260" text-anchor="middle" fill="#1f2328" font-size="10">0.6.0</text>
<text x="247.1" y="260" text-anchor="middle" fill="#1f2328" font-size="10">0.8.0</text>
<text x="310.8" y="260" text-anchor="middle" fill="#1f2328" font-size="10">0.10.0</text>
<text x="374.5" y="260" text-anchor="middle" fill="#1f2328" font-size="10">0.12.0</text>
<text x="438.2" y="260" text-anchor="middle" fill="#1f2328" font-size="10">0.14.0</text>
<text x="501.8" y="260" text-anchor="middle" fill="#1f2328" font-size="10">0.16.0</text>
<text x="565.5" y="260" text-anchor="middle" fill="#1f2328" font-size="10">0.18.0</text>
<text x="629.2" y="260" text-anchor="middle" fill="#1f2328" font-size="10">0.20.0</text>
<text x="692.9" y="260" text-anchor="middle" fill="#1f2328" font-size="10">0.22.0</text>
<text x="756.6" y="260" text-anchor="middle" fill="#1f2328" font-size="10">0.24.0</text>
<text x="820.3" y="260" text-anchor="middle" fill="#1f2328" font-size="10">0.26.0</text>
<text x="884.0" y="260" text-anchor="middle" fill="#1f2328" font-size="10">0.28.0</text>
<polyline points="56.0,87.7 87.8,87.7 119.7,87.7 151.5,87.7 183.4,87.7 215.2,88.8 247.1,77.7 278.9,77.7 310.8,77.1 342.6,78.4 374.5,78.4 406.3,78.4 438.2,78.4 470.0,78.4 501.8,78.4 533.7,78.4 565.5,78.4 597.4,78.4 629.2,78.4 661.1,78.4 692.9,78.4 724.8,78.4 756.6,78.4 788.5,77.3 820.3,76.9 852.2,76.9 884.0,76.9" fill="none" stroke="#0969da" stroke-width="2"/>
<polyline points="56.0,89.2 87.8,89.2 119.7,89.2 151.5,89.2 183.4,89.2 215.2,88.8 247.1,88.6 278.9,88.6 310.8,86.5 342.6,88.1 374.5,88.1 406.3,88.1 438.2,88.1 470.0,88.1 501.8,88.1 533.7,88.1 565.5,88.1 597.4,88.1 629.2,88.1 661.1,88.1 692.9,88.1 724.8,88.1 756.6,88.1 788.5,88.1 820.3,85.9 852.2,85.9 884.0,88.1" fill="none" stroke="#0969da" stroke-width="2" stroke-dasharray="5 4"/>
<polyline points="56.0,153.4 87.8,153.4 119.7,153.4 151.5,153.4 183.4,153.4 215.2,155.9 247.1,182.8 278.9,182.8 310.8,166.3 342.6,166.5 374.5,166.5 406.3,166.5 438.2,166.5 470.0,166.5 501.8,166.5 533.7,166.5 565.5,166.5 597.4,166.5 629.2,166.5 661.1,166.5 692.9,166.5 724.8,166.5 756.6,166.5 788.5,166.5 820.3,152.2 852.2,152.2 884.0,170.8" fill="none" stroke="#8250df" stroke-width="2"/>
<polyline points="56.0,152.2 87.8,152.2 119.7,152.2 151.5,152.2 183.4,152.2 215.2,151.0 247.1,151.0 278.9,151.0 310.8,128.5 342.6,126.1 374.5,126.1 406.3,126.1 438.2,126.1 470.0,126.1 501.8,126.1 533.7,126.1 565.5,126.1 597.4,126.1 629.2,126.1 661.1,126.1 692.9,126.1 724.8,126.1 756.6,126.1 788.5,126.1 820.3,115.7 852.2,115.7 884.0,144.2" fill="none" stroke="#8250df" stroke-width="2" stroke-dasharray="5 4"/>
<line x1="56" y1="282" x2="78" y2="282" stroke="#0969da" stroke-width="2"/>
<text x="84" y="286" fill="#1f2328">AUC</text>
<line x1="113" y1="282" x2="135" y2="282" stroke="#0969da" stroke-width="2" stroke-dasharray="5 4"/>
<text x="141" y="286" fill="#1f2328">AUC, churn</text>
<line x1="219" y1="282" x2="241" y2="282" stroke="#8250df" stroke-width="2"/>
<text x="247" y="286" fill="#1f2328">recall at 20%</text>
<line x1="346" y1="282" x2="368" y2="282" stroke="#8250df" stroke-width="2" stroke-dasharray="5 4"/>
<text x="374" y="286" fill="#1f2328">recall, churn</text>
<text x="884" y="286" text-anchor="end" fill="#57606a" font-size="11">median over the development repositories</text>
</svg>
